<svg width="33" height="32" viewBox="0 0 33 32" fill="none" xmlns="http://www.w3.org/2000/svg">
<path d="M15.2002 6.04401C13.111 4.70584 10.6812 3.99634 8.2002 4.00001C6.72418 3.99851 5.25873 4.24876 3.86686 4.74001C3.67192 4.80894 3.50313 4.9366 3.38374 5.10541C3.26435 5.27423 3.20022 5.47591 3.2002 5.68268V24.6827C3.20022 24.8426 3.23862 25.0003 3.31217 25.1423C3.38572 25.2844 3.49228 25.4067 3.6229 25.4991C3.75352 25.5914 3.90439 25.6511 4.06284 25.6731C4.2213 25.695 4.38271 25.6787 4.53353 25.6253C5.71131 25.2099 6.95131 24.9985 8.2002 25C10.8602 25 13.2975 25.9427 15.2002 27.5147V6.04401ZM17.2002 27.5147C19.1687 25.8855 21.645 24.996 24.2002 25C25.4882 25 26.7202 25.2213 27.8669 25.6267C28.0178 25.68 28.1793 25.6964 28.3379 25.6743C28.4964 25.6523 28.6474 25.5925 28.778 25.5C28.9087 25.4075 29.0152 25.285 29.0887 25.1428C29.1621 25.0005 29.2004 24.8428 29.2002 24.6827V5.68268C29.2002 5.47591 29.136 5.27423 29.0167 5.10541C28.8973 4.9366 28.7285 4.80894 28.5335 4.74001C27.1417 4.24876 25.6762 3.99851 24.2002 4.00001C21.7192 3.99634 19.2894 4.70584 17.2002 6.04401V27.5147Z" fill="#D0D5DD" style="fill:#D0D5DD;fill:color(display-p3 0.8157 0.8353 0.8667);fill-opacity:1;"/>
</svg>
