<svg width="24" height="24" viewBox="0 0 24 24" fill="none" xmlns="http://www.w3.org/2000/svg">
<path d="M7.16316 2.99102C7.98201 2.35414 9.05634 2 10.125 2C10.4258 2 10.664 2.15608 10.8021 2.26433C10.9579 2.38653 11.1034 2.54244 11.2321 2.69835C11.3245 2.81033 11.375 2.95097 11.375 3.09615V7.625H10.0183C9.76091 6.89675 9.06639 6.375 8.25 6.375C7.21446 6.375 6.375 7.21446 6.375 8.25C6.375 9.28554 7.21446 10.125 8.25 10.125C9.06639 10.125 9.76091 9.60325 10.0183 8.875H11.375V20.644C11.375 20.8315 11.2908 21.009 11.1457 21.1278C10.5683 21.6 9.79549 22 8.875 22C7.39266 22 6.28871 21.252 5.57446 20.3591C5.02615 19.6737 4.67654 18.866 4.55157 18.1684C4.14317 18.0619 3.66517 17.8442 3.23387 17.4745C2.54415 16.8834 2 15.9266 2 14.5C2 13.8041 2.04624 13.1754 2.14894 12.625H6.0625C6.85726 12.625 7.51344 13.2184 7.61216 13.9862C6.89064 14.2472 6.375 14.9384 6.375 15.75C6.375 16.7855 7.21446 17.625 8.25 17.625C9.28554 17.625 10.125 16.7855 10.125 15.75C10.125 14.9308 9.59961 14.2343 8.86739 13.979C8.76071 12.5231 7.54568 11.375 6.0625 11.375H2.55146C2.74302 11.0027 2.99863 10.6873 3.333 10.4643C3.41849 10.4074 3.50694 10.3579 3.59796 10.3157C3.24205 9.27667 3.33554 8.0585 3.67704 7.10229C3.89676 6.48706 4.24352 5.90608 4.72161 5.51844C5.03664 5.263 5.4111 5.09277 5.82115 5.06074C6.00106 4.20744 6.5069 3.50145 7.16316 2.99102ZM12.625 17.625H13.5625C15.1157 17.625 16.375 16.3657 16.375 14.8125V12.5183C17.1032 12.2609 17.625 11.5664 17.625 10.75C17.625 9.71446 16.7855 8.875 15.75 8.875C14.7145 8.875 13.875 9.71446 13.875 10.75C13.875 11.5664 14.3968 12.2609 15.125 12.5183V14.8125C15.125 15.6755 14.4255 16.375 13.5625 16.375H12.625V3.09615C12.625 2.95097 12.6755 2.81033 12.768 2.69835C12.8966 2.54244 13.0421 2.38653 13.198 2.26433C13.336 2.15608 13.5742 2 13.875 2C14.9436 2 16.018 2.35414 16.8369 2.99102C17.4931 3.50145 17.9989 4.20744 18.1789 5.06074C18.5889 5.09277 18.9634 5.263 19.2784 5.51844C19.7565 5.90608 20.1032 6.48706 20.323 7.10229C20.6645 8.0585 20.758 9.27667 20.402 10.3157C20.4931 10.3579 20.5815 10.4074 20.667 10.4643C21.0112 10.6938 21.272 11.0214 21.4653 11.408C21.8431 12.1636 22 13.2181 22 14.5C22 15.9266 21.4559 16.8834 20.7661 17.4745C20.3349 17.8442 19.8569 18.0619 19.4484 18.1684C19.3235 18.866 18.9739 19.6737 18.4255 20.3591C17.7112 21.252 16.6074 22 15.125 22C14.2045 22 13.4316 21.6 12.8544 21.1278C12.7091 21.009 12.625 20.8315 12.625 20.644V17.625ZM8.25 7.625C7.90482 7.625 7.625 7.90482 7.625 8.25C7.625 8.59518 7.90482 8.875 8.25 8.875C8.59518 8.875 8.875 8.59518 8.875 8.25C8.875 7.90482 8.59518 7.625 8.25 7.625ZM8.25 15.125C7.90482 15.125 7.625 15.4049 7.625 15.75C7.625 16.0951 7.90482 16.375 8.25 16.375C8.59518 16.375 8.875 16.0951 8.875 15.75C8.875 15.4049 8.59518 15.125 8.25 15.125ZM15.75 11.375C16.0951 11.375 16.375 11.0952 16.375 10.75C16.375 10.4048 16.0951 10.125 15.75 10.125C15.4049 10.125 15.125 10.4048 15.125 10.75C15.125 11.0952 15.4049 11.375 15.75 11.375Z" fill="#98A2B3" style="fill:#98A2B3;fill:color(display-p3 0.5964 0.6352 0.7017);fill-opacity:1;"/>
</svg>
