<svg width="32" height="32" viewBox="0 0 32 32" fill="none" xmlns="http://www.w3.org/2000/svg">
<path d="M9.80904 4.46773C10.8572 3.65251 12.2323 3.19922 13.6002 3.19922C13.9852 3.19922 14.2901 3.39899 14.4668 3.53755C14.6663 3.69397 14.8525 3.89354 15.0172 4.09311C15.1355 4.23643 15.2002 4.41647 15.2002 4.60229V10.3992H13.4636C13.1342 9.46706 12.2452 8.79922 11.2002 8.79922C9.87471 8.79922 8.8002 9.87373 8.8002 11.1992C8.8002 12.5247 9.87471 13.5992 11.2002 13.5992C12.2452 13.5992 13.1342 12.9314 13.4636 11.9992H15.2002V27.0635C15.2002 27.3035 15.0925 27.5307 14.9067 27.6827C14.1676 28.2872 13.1784 28.7992 12.0002 28.7992C10.1028 28.7992 8.68975 27.8418 7.77551 26.6989C7.07367 25.8216 6.62616 24.7877 6.46621 23.8947C5.94346 23.7584 5.33162 23.4799 4.77956 23.0066C3.89671 22.2499 3.2002 21.0253 3.2002 19.1992C3.2002 18.3085 3.25938 17.5037 3.39084 16.7992H8.4002C9.41749 16.7992 10.2574 17.5587 10.3838 18.5416C9.46021 18.8757 8.8002 19.7603 8.8002 20.7992C8.8002 22.1247 9.87471 23.1992 11.2002 23.1992C12.5257 23.1992 13.6002 22.1247 13.6002 20.7992C13.6002 19.7506 12.9277 18.8591 11.9905 18.5323C11.8539 16.6688 10.2987 15.1992 8.4002 15.1992H3.90607C4.15127 14.7227 4.47844 14.3189 4.90644 14.0336C5.01586 13.9606 5.12908 13.8973 5.24559 13.8433C4.79002 12.5134 4.90968 10.9541 5.3468 9.73015C5.62805 8.94266 6.07191 8.199 6.68386 7.70282C7.08709 7.37586 7.5664 7.15797 8.09127 7.11696C8.32156 6.02474 8.96903 5.12107 9.80904 4.46773ZM16.8002 23.1992H18.0002C19.9884 23.1992 21.6002 21.5874 21.6002 19.5992V16.6626C22.5324 16.3331 23.2002 15.4442 23.2002 14.3992C23.2002 13.0737 22.1256 11.9992 20.8002 11.9992C19.4748 11.9992 18.4002 13.0737 18.4002 14.3992C18.4002 15.4442 19.068 16.3331 20.0002 16.6626V19.5992C20.0002 20.7039 19.1048 21.5992 18.0002 21.5992H16.8002V4.60229C16.8002 4.41647 16.8648 4.23643 16.9832 4.09311C17.1479 3.89354 17.3341 3.69397 17.5336 3.53755C17.7103 3.39899 18.0152 3.19922 18.4002 3.19922C19.768 3.19922 21.1432 3.65251 22.1914 4.46773C23.0314 5.12107 23.6788 6.02474 23.9092 7.11696C24.434 7.15797 24.9133 7.37586 25.3165 7.70282C25.9285 8.199 26.3724 8.94266 26.6536 9.73015C27.0908 10.9541 27.2104 12.5134 26.7548 13.8433C26.8714 13.8973 26.9845 13.9606 27.094 14.0336C27.5346 14.3273 27.8684 14.7465 28.1157 15.2414C28.5994 16.2087 28.8002 17.5584 28.8002 19.1992C28.8002 21.0253 28.1037 22.2499 27.2208 23.0066C26.6688 23.4799 26.057 23.7584 25.5341 23.8947C25.3743 24.7877 24.9268 25.8216 24.2248 26.6989C23.3106 27.8418 21.8976 28.7992 20.0002 28.7992C18.822 28.7992 17.8327 28.2872 17.0938 27.6827C16.9079 27.5307 16.8002 27.3035 16.8002 27.0635V23.1992ZM11.2002 10.3992C10.7584 10.3992 10.4002 10.7574 10.4002 11.1992C10.4002 11.641 10.7584 11.9992 11.2002 11.9992C11.642 11.9992 12.0002 11.641 12.0002 11.1992C12.0002 10.7574 11.642 10.3992 11.2002 10.3992ZM11.2002 19.9992C10.7584 19.9992 10.4002 20.3575 10.4002 20.7992C10.4002 21.241 10.7584 21.5992 11.2002 21.5992C11.642 21.5992 12.0002 21.241 12.0002 20.7992C12.0002 20.3575 11.642 19.9992 11.2002 19.9992ZM20.8002 15.1992C21.242 15.1992 21.6002 14.841 21.6002 14.3992C21.6002 13.9574 21.242 13.5992 20.8002 13.5992C20.3584 13.5992 20.0002 13.9574 20.0002 14.3992C20.0002 14.841 20.3584 15.1992 20.8002 15.1992Z" fill="#D0D5DD" style="fill:#D0D5DD;fill:color(display-p3 0.8157 0.8353 0.8667);fill-opacity:1;"/>
</svg>
