<svg width="33" height="32" viewBox="0 0 33 32" fill="none" xmlns="http://www.w3.org/2000/svg">
<path fill-rule="evenodd" clip-rule="evenodd" d="M6.6642 3.69467C9.8217 3.2312 13.0089 2.99903 16.2002 3C19.4402 3 22.6229 3.23734 25.7362 3.69334C28.3735 4.08267 30.2002 6.392 30.2002 8.98667V17.0133C30.2002 19.608 28.3735 21.9173 25.7362 22.3067C23.1495 22.6853 20.5149 22.9133 17.8402 22.98C17.7072 22.9826 17.5803 23.036 17.4855 23.1293L11.9069 28.7067C11.767 28.8463 11.5889 28.9414 11.395 28.98C11.2012 29.0185 11.0002 28.9987 10.8176 28.9231C10.635 28.8474 10.4789 28.7194 10.369 28.5551C10.2591 28.3908 10.2004 28.1977 10.2002 28V22.7267C9.01791 22.6185 7.8388 22.478 6.6642 22.3053C4.02686 21.9187 2.2002 19.6067 2.2002 17.012V8.988C2.2002 6.39334 4.02686 4.08134 6.6642 3.69467Z" fill="#D0D5DD" style="fill:#D0D5DD;fill:color(display-p3 0.8157 0.8353 0.8667);fill-opacity:1;"/>
</svg>
