<svg width="32" height="32" viewBox="0 0 32 32" fill="none" xmlns="http://www.w3.org/2000/svg">
<path d="M7.42133 6.20933C7.93593 6.0698 8.46682 5.9994 9 6H23C23.5467 6 24.0747 6.07333 24.5773 6.20933C24.2449 5.54531 23.7342 4.98693 23.1024 4.59672C22.4706 4.20652 21.7426 3.9999 21 4H11C10.2572 3.99965 9.52894 4.20616 8.89687 4.59637C8.2648 4.98659 7.75387 5.5451 7.42133 6.20933ZM3 16C3 14.9391 3.42143 13.9217 4.17157 13.1716C4.92172 12.4214 5.93913 12 7 12H25C26.0609 12 27.0783 12.4214 27.8284 13.1716C28.5786 13.9217 29 14.9391 29 16V24C29 25.0609 28.5786 26.0783 27.8284 26.8284C27.0783 27.5786 26.0609 28 25 28H7C5.93913 28 4.92172 27.5786 4.17157 26.8284C3.42143 26.0783 3 25.0609 3 24V16ZM7 10C6.45333 10 5.92533 10.0733 5.42133 10.2093C5.75387 9.5451 6.2648 8.98659 6.89687 8.59637C7.52894 8.20616 8.25718 7.99965 9 8H23C23.7426 7.9999 24.4706 8.20652 25.1024 8.59673C25.7342 8.98693 26.2449 9.54531 26.5773 10.2093C26.0632 10.0699 25.5327 9.99952 25 10H7Z" fill="#D0D5DD" style="fill:#D0D5DD;fill:color(display-p3 0.8157 0.8353 0.8667);fill-opacity:1;"/>
</svg>
