<svg width="28" height="28" viewBox="0 0 28 28" fill="none" xmlns="http://www.w3.org/2000/svg">
<path d="M20.7046 14.3492C20.6766 11.3213 23.2474 9.84817 23.365 9.77959C21.909 7.70991 19.6524 7.42713 18.8593 7.40458C16.964 7.2101 15.1255 8.51035 14.16 8.51035C13.1752 8.51035 11.6884 7.42337 10.086 7.45531C8.02397 7.48631 6.0949 8.65033 5.0369 10.4579C2.85344 14.1435 4.48188 19.5596 6.57379 22.5387C7.62023 23.9977 8.84301 25.6268 10.4435 25.5695C12.0093 25.5065 12.5942 24.5962 14.4838 24.5962C16.356 24.5962 16.9052 25.5695 18.5375 25.5328C20.218 25.5065 21.276 24.0672 22.2858 22.5951C23.4951 20.9228 23.9807 19.2759 24 19.1913C23.9605 19.1782 20.7364 17.9785 20.7046 14.3492Z" fill="black" style="fill:black;fill-opacity:1;"/>
<path d="M17.6211 5.44482C18.4633 4.41796 19.0395 3.02095 18.8796 1.60327C17.6607 1.65588 16.1363 2.42532 15.2585 3.42963C14.4818 4.31462 13.7881 5.76518 13.9673 7.12931C15.3365 7.22889 16.7424 6.4557 17.6211 5.44482Z" fill="black" style="fill:black;fill-opacity:1;"/>
</svg>
