<svg width="33" height="32" viewBox="0 0 33 32" fill="none" xmlns="http://www.w3.org/2000/svg">
<path fill-rule="evenodd" clip-rule="evenodd" d="M12.2005 6C12.4177 6.00004 12.6291 6.07086 12.8025 6.20173C12.976 6.3326 13.1021 6.51641 13.1618 6.72533L14.2458 10.52C14.4792 11.3372 14.917 12.0815 15.518 12.6824C16.119 13.2834 16.8632 13.7213 17.6805 13.9547L21.4751 15.0387C21.6839 15.0985 21.8676 15.2246 21.9983 15.3981C22.129 15.5715 22.1997 15.7828 22.1997 16C22.1997 16.2172 22.129 16.4285 21.9983 16.6019C21.8676 16.7754 21.6839 16.9015 21.4751 16.9613L17.6805 18.0453C16.8632 18.2787 16.119 18.7166 15.518 19.3176C14.917 19.9185 14.4792 20.6628 14.2458 21.48L13.1618 25.2747C13.102 25.4835 12.9758 25.6671 12.8024 25.7978C12.6289 25.9286 12.4176 25.9993 12.2005 25.9993C11.9833 25.9993 11.772 25.9286 11.5985 25.7978C11.4251 25.6671 11.2989 25.4835 11.2391 25.2747L10.1551 21.48C9.92172 20.6628 9.48386 19.9185 8.88289 19.3176C8.28192 18.7166 7.53768 18.2787 6.72045 18.0453L2.92578 16.9613C2.71699 16.9015 2.53335 16.7754 2.40261 16.6019C2.27188 16.4285 2.20117 16.2172 2.20117 16C2.20117 15.7828 2.27188 15.5715 2.40261 15.3981C2.53335 15.2246 2.71699 15.0985 2.92578 15.0387L6.72045 13.9547C7.53768 13.7213 8.28192 13.2834 8.88289 12.6824C9.48386 12.0815 9.92172 11.3372 10.1551 10.52L11.2391 6.72533C11.2988 6.51641 11.4249 6.3326 11.5984 6.20173C11.7718 6.07086 11.9832 6.00004 12.2005 6ZM24.2005 2C24.4235 1.99988 24.6403 2.07435 24.8162 2.21158C24.992 2.34881 25.117 2.54091 25.1711 2.75733L25.5151 4.13867C25.8298 5.392 26.8085 6.37067 28.0618 6.68533L29.4431 7.02933C29.66 7.08304 29.8526 7.20781 29.9902 7.38373C30.1279 7.55966 30.2027 7.77661 30.2027 8C30.2027 8.22339 30.1279 8.44034 29.9902 8.61627C29.8526 8.79219 29.66 8.91696 29.4431 8.97067L28.0618 9.31467C26.8085 9.62933 25.8298 10.608 25.5151 11.8613L25.1711 13.2427C25.1174 13.4595 24.9926 13.6521 24.8167 13.7898C24.6408 13.9274 24.4238 14.0022 24.2005 14.0022C23.9771 14.0022 23.7601 13.9274 23.5842 13.7898C23.4083 13.6521 23.2835 13.4595 23.2298 13.2427L22.8858 11.8613C22.7319 11.2459 22.4137 10.6839 21.9652 10.2353C21.5166 9.78674 20.9545 9.46852 20.3391 9.31467L18.9578 8.97067C18.7409 8.91696 18.5483 8.79219 18.4107 8.61627C18.273 8.44034 18.1982 8.22339 18.1982 8C18.1982 7.77661 18.273 7.55966 18.4107 7.38373C18.5483 7.20781 18.7409 7.08304 18.9578 7.02933L20.3391 6.68533C20.9545 6.53148 21.5166 6.21326 21.9652 5.7647C22.4137 5.31614 22.7319 4.75409 22.8858 4.13867L23.2298 2.75733C23.2839 2.54091 23.4089 2.34881 23.5848 2.21158C23.7606 2.07435 23.9774 1.99988 24.2005 2ZM22.2005 20C22.4105 19.9999 22.6152 20.0659 22.7856 20.1887C22.956 20.3114 23.0834 20.4847 23.1498 20.684L23.6751 22.2613C23.8751 22.8573 24.3418 23.3267 24.9391 23.5253L26.5165 24.052C26.7151 24.1187 26.8877 24.2461 27.0101 24.4162C27.1324 24.5863 27.1982 24.7905 27.1982 25C27.1982 25.2095 27.1324 25.4137 27.0101 25.5838C26.8877 25.7539 26.7151 25.8813 26.5165 25.948L24.9391 26.4747C24.3431 26.6747 23.8738 27.1413 23.6751 27.7387L23.1485 29.316C23.0818 29.5146 22.9544 29.6873 22.7843 29.8096C22.6142 29.9319 22.41 29.9977 22.2005 29.9977C21.9909 29.9977 21.7867 29.9319 21.6166 29.8096C21.4465 29.6873 21.3191 29.5146 21.2525 29.316L20.7258 27.7387C20.6276 27.4444 20.4622 27.177 20.2429 26.9576C20.0235 26.7382 19.7561 26.5729 19.4618 26.4747L17.8845 25.948C17.6858 25.8813 17.5132 25.7539 17.3909 25.5838C17.2685 25.4137 17.2027 25.2095 17.2027 25C17.2027 24.7905 17.2685 24.5863 17.3909 24.4162C17.5132 24.2461 17.6858 24.1187 17.8845 24.052L19.4618 23.5253C20.0578 23.3253 20.5271 22.8587 20.7258 22.2613L21.2525 20.684C21.3187 20.485 21.446 20.3118 21.6161 20.189C21.7862 20.0663 21.9907 20.0002 22.2005 20Z" fill="#D0D5DD" style="fill:#D0D5DD;fill:color(display-p3 0.8157 0.8353 0.8667);fill-opacity:1;"/>
</svg>
