<svg width="16" height="16" viewBox="0 0 16 16" fill="none" xmlns="http://www.w3.org/2000/svg">
<path d="M0 5C0 2.23858 2.23858 0 5 0H11C13.7614 0 16 2.23858 16 5V11C16 13.7614 13.7614 16 11 16H5C2.23858 16 0 13.7614 0 11V5Z" fill="#F26625" style="fill:#F26625;fill:color(display-p3 0.9490 0.4000 0.1451);fill-opacity:1;"/>
<path d="M7.46699 9.06782L4.69434 3.89453H5.97446L7.57446 7.14795C7.57446 7.20137 7.62788 7.25479 7.6813 7.3082C7.73472 7.36162 7.73472 7.41504 7.78814 7.52124L7.84155 7.57466V7.62808C7.89497 7.73491 7.89497 7.78833 7.94839 7.89517C8.00181 7.94859 8.00181 8.05542 8.05523 8.1082C8.10864 7.94795 8.21548 7.84111 8.26826 7.62808C8.32168 7.46782 8.42852 7.3082 8.53535 7.14795L10.1354 3.89453H11.3086L8.53599 9.12188V12.4287H7.46953L7.46699 9.06782Z" fill="white" style="fill:white;fill-opacity:1;"/>
</svg>
