<svg width="32" height="32" viewBox="0 0 32 32" fill="none" xmlns="http://www.w3.org/2000/svg">
<path fill-rule="evenodd" clip-rule="evenodd" d="M28.5808 3.3624C29.1169 3.86709 29.1425 4.71092 28.6379 5.24716L19.7719 14.6672L17.8855 12.7807L26.696 3.41952C27.2007 2.88328 28.0445 2.85772 28.5808 3.3624ZM14.8188 13.1425C15.2123 12.9064 15.716 12.9685 16.0404 13.2929L19.3737 16.6263C19.5613 16.8137 19.6667 17.0681 19.6667 17.3333C19.6667 20.906 18.4187 23.7569 17.1836 25.7029C16.5655 26.6767 15.9465 27.4307 15.4785 27.9447C15.2528 28.1927 14.8372 28.5923 14.6803 28.7431L14.6636 28.7591C14.4181 28.97 14.0857 29.0492 13.7716 28.9713C10.9696 28.278 8.42021 27.0389 6.49135 24.7657C6.07965 24.2805 5.70037 23.7531 5.35508 23.1803C5.95447 23.2211 6.69316 23.2333 7.50316 23.1629C9.55907 22.9841 12.1972 22.2587 14.1015 19.9736C14.4549 19.5493 14.3976 18.9187 13.9733 18.5652C13.5491 18.2116 12.9185 18.2689 12.565 18.6932C11.1359 20.4081 9.10732 21.0159 7.32989 21.1704C6.44876 21.2471 5.6594 21.2088 5.09061 21.1509C5.02563 21.1444 4.96384 21.1393 4.90331 21.1344C4.71391 21.1189 4.53668 21.1044 4.31143 21.0464C3.63515 19.3177 3.19032 17.2735 3.00301 14.8628C2.97741 14.5335 3.11616 14.2127 3.37373 14.0057C3.63131 13.7988 3.97444 13.7325 4.29057 13.8285C8.12819 14.9939 11.8101 14.9477 14.8188 13.1425ZM6.66667 8.66667C6.66667 7.56209 7.56209 6.66667 8.66667 6.66667C9.77124 6.66667 10.6667 7.56209 10.6667 8.66667C10.6667 9.77124 9.77124 10.6667 8.66667 10.6667C7.56209 10.6667 6.66667 9.77124 6.66667 8.66667ZM16 5.26984C16 4.56853 15.4031 4 14.6667 4C13.9303 4 13.3333 4.56853 13.3333 5.26984V5.39683C13.3333 6.09813 13.9303 6.66667 14.6667 6.66667C15.4031 6.66667 16 6.09813 16 5.39683V5.26984Z" fill="#D0D5DD" style="fill:#D0D5DD;fill:color(display-p3 0.8157 0.8353 0.8667);fill-opacity:1;"/>
</svg>
