<svg width="24" height="24" viewBox="0 0 24 24" fill="none" xmlns="http://www.w3.org/2000/svg">
<path d="M21.0547 11.2865C21.6046 11.3366 22.0099 11.8226 21.9599 12.3724C21.5187 17.2104 17.4524 21.0002 12.5 21.0003C11.2984 21.0003 10.1459 20.7763 9.08495 20.3675C8.9942 20.3326 8.94113 20.3122 8.90233 20.2982C8.86415 20.2845 8.86986 20.2881 8.89257 20.2933C8.90913 20.2939 8.9131 20.2923 8.88671 20.2943C8.85506 20.2967 8.81104 20.3004 8.7285 20.3089L3.60839 20.8392C3.38404 20.8624 3.14598 20.8877 2.94921 20.89C2.76343 20.8922 2.42911 20.8814 2.10839 20.6859C1.73224 20.4564 1.47555 20.0733 1.40721 19.638C1.34901 19.2666 1.467 18.9524 1.54003 18.7816C1.61739 18.6007 1.73168 18.3911 1.83886 18.1927L3.4746 15.1654C3.5459 15.0334 3.58464 14.9625 3.61034 14.9095C3.61171 14.9067 3.6121 14.9032 3.61327 14.9007C3.61138 14.8939 3.61014 14.8856 3.60741 14.8763C3.58577 14.8031 3.55161 14.7041 3.49511 14.5365C3.17338 13.582 3.00002 12.5602 2.99999 11.5004C2.99999 6.5518 6.78281 2.48726 11.6152 2.04039C12.165 1.98974 12.6523 2.39486 12.7031 2.94469C12.7538 3.4945 12.3486 3.98173 11.7988 4.03258C7.98579 4.38532 4.99999 7.5947 4.99999 11.5004C5.00002 12.3401 5.13744 13.1456 5.39061 13.8968C5.45454 14.0865 5.53468 14.3099 5.58007 14.5277L5.61229 14.7425L5.61913 14.9105C5.61945 15.0733 5.59947 15.2255 5.55663 15.3939C5.48802 15.6633 5.34137 15.9185 5.23436 16.1166L3.77831 18.8109L8.52343 18.3207L8.73241 18.3002C8.80824 18.2945 8.88847 18.2913 8.96776 18.2943C9.1 18.2994 9.21182 18.3144 9.34081 18.3441C9.49683 18.3801 9.6678 18.4486 9.80468 18.5013C10.6397 18.823 11.5482 19.0003 12.5 19.0003C16.4088 19.0002 19.6206 16.0083 19.9687 12.1908C20.0191 11.6411 20.5049 11.2365 21.0547 11.2865Z" fill="#98A2B3" style="fill:#98A2B3;fill:color(display-p3 0.5964 0.6352 0.7017);fill-opacity:1;"/>
<path d="M16.954 2.0919C17.0831 1.8338 17.1476 1.70475 17.2046 1.62994C17.6048 1.1048 18.3951 1.1048 18.7953 1.62994C18.8524 1.70475 18.9169 1.8338 19.0459 2.09191C19.3999 2.79988 19.5769 3.15386 19.8134 3.46061C20.0232 3.73281 20.2672 3.97683 20.5394 4.18664C20.8461 4.42309 21.2001 4.60009 21.9081 4.95407C22.1662 5.08312 22.2953 5.14765 22.3701 5.20466C22.8952 5.60487 22.8952 6.39516 22.3701 6.79537C22.2953 6.85238 22.1662 6.91691 21.9081 7.04596C21.2001 7.39995 20.8461 7.57694 20.5394 7.81339C20.2672 8.02321 20.0232 8.26722 19.8134 8.53942C19.5769 8.84617 19.3999 9.20016 19.0459 9.90813C18.9169 10.1662 18.8524 10.2953 18.7953 10.3701C18.3951 10.8952 17.6048 10.8952 17.2046 10.3701C17.1476 10.2953 17.0831 10.1662 16.954 9.90813C16.6001 9.20016 16.4231 8.84617 16.1866 8.53942C15.9768 8.26722 15.7328 8.02321 15.4606 7.81339C15.1538 7.57694 14.7998 7.39995 14.0919 7.04596C13.8338 6.91691 13.7047 6.85238 13.6299 6.79537C13.1048 6.39516 13.1048 5.60487 13.6299 5.20466C13.7047 5.14765 13.8338 5.08312 14.0919 4.95407C14.7998 4.60009 15.1538 4.42309 15.4606 4.18664C15.7328 3.97683 15.9768 3.73281 16.1866 3.46061C16.4231 3.15386 16.6001 2.79988 16.954 2.0919Z" fill="#98A2B3" style="fill:#98A2B3;fill:color(display-p3 0.5964 0.6352 0.7017);fill-opacity:1;"/>
<path d="M12.477 10.046C12.6925 9.61501 13.3075 9.61501 13.523 10.046C13.7 10.3999 13.7884 10.5769 13.9067 10.7303C14.0116 10.8664 14.1336 10.9884 14.2697 11.0933C14.4231 11.2116 14.6001 11.3001 14.954 11.477C15.385 11.6925 15.385 12.3075 14.954 12.523C14.6001 12.7 14.4231 12.7885 14.2697 12.9067C14.1336 13.0116 14.0116 13.1336 13.9067 13.2697C13.7884 13.4231 13.7 13.6001 13.523 13.9541C13.3075 14.385 12.6925 14.385 12.477 13.9541C12.3 13.6001 12.2115 13.4231 12.0933 13.2697C11.9884 13.1336 11.8664 13.0116 11.7303 12.9067C11.5769 12.7885 11.3999 12.7 11.0459 12.523C10.615 12.3075 10.615 11.6925 11.0459 11.477C11.3999 11.3001 11.5769 11.2116 11.7303 11.0933C11.8664 10.9884 11.9884 10.8664 12.0933 10.7303C12.2115 10.5769 12.3 10.3999 12.477 10.046Z" fill="#98A2B3" style="fill:#98A2B3;fill:color(display-p3 0.5964 0.6352 0.7017);fill-opacity:1;"/>
</svg>
