<svg width="124" height="32" viewBox="0 0 124 32" fill="none" xmlns="http://www.w3.org/2000/svg">
<rect width="32" height="32" rx="10" fill="black" style="fill:black;fill-opacity:1;"/>
<path d="M50.5078 13.7554C50.5078 16.7062 48.6189 18.6788 45.7774 18.6788H42.6926V22.8702H40V8.84961H45.7774C48.6205 8.84961 50.5078 10.8222 50.5078 13.7554ZM47.7224 13.7554C47.7224 12.3459 46.8067 11.4063 45.4044 11.4063H42.6926V16.1238H45.4044C46.8067 16.1238 47.7224 15.1841 47.7224 13.7554Z" fill="#090915" style="fill:#090915;fill:color(display-p3 0.0353 0.0353 0.0824);fill-opacity:1;"/>
<path d="M57.2216 13.0973V15.7843H55.7633C54.5482 15.7843 54.2105 16.3475 54.2105 17.8889V22.8686H51.686V13.0973H54.06V14.7707H54.2665C54.5274 13.7554 55.3887 13.0973 56.4724 13.0973H57.2216Z" fill="#090915" style="fill:#090915;fill:color(display-p3 0.0353 0.0353 0.0824);fill-opacity:1;"/>
<path d="M57.741 17.9837C57.741 14.8832 59.7228 12.8157 62.6587 12.8157C65.5946 12.8157 67.5573 14.8832 67.5573 17.9837C67.5573 21.0842 65.5946 23.1517 62.6587 23.1517C59.7228 23.1517 57.741 21.0842 57.741 17.9837ZM64.9767 17.9837C64.9767 16.3104 64.0418 15.2018 62.6587 15.2018C61.2756 15.2018 60.3215 16.3104 60.3215 17.9837C60.3215 19.657 61.2564 20.7656 62.6587 20.7656C64.0611 20.7656 64.9767 19.657 64.9767 17.9837Z" fill="#090915" style="fill:#090915;fill:color(display-p3 0.0353 0.0353 0.0824);fill-opacity:1;"/>
<path d="M77.5384 16.3297V22.8702H74.9947V17.382C74.9947 16.1415 74.2839 15.3338 73.181 15.3338C72.022 15.3338 71.2552 16.2734 71.2552 17.6636V22.8702H68.7307V8.84961H71.2552V14.2815H71.4425C72.022 13.3982 73.0321 12.8157 74.2279 12.8157C76.1729 12.8157 77.5384 14.2059 77.5384 16.3297Z" fill="#090915" style="fill:#090915;fill:color(display-p3 0.0353 0.0353 0.0824);fill-opacity:1;"/>
<path d="M78.7872 17.9838C78.7872 14.8833 80.7691 12.8158 83.705 12.8158C86.6409 12.8158 88.6035 14.8833 88.6035 17.9838C88.6035 21.0843 86.6409 23.1518 83.705 23.1518C80.7691 23.1518 78.7872 21.0843 78.7872 17.9838ZM86.023 17.9838C86.023 16.3105 85.0881 15.2019 83.705 15.2019C82.3219 15.2019 81.3678 16.3105 81.3678 17.9838C81.3678 19.6572 82.3027 20.7657 83.705 20.7657C85.1073 20.7657 86.023 19.6572 86.023 17.9838Z" fill="#090915" style="fill:#090915;fill:color(display-p3 0.0353 0.0353 0.0824);fill-opacity:1;"/>
<path d="M89.8644 19.7312H92.3328C92.4817 20.5775 93.1749 21.065 94.2394 21.065C95.1935 21.065 95.773 20.6708 95.773 19.9935C95.773 19.4673 95.4368 19.1665 94.7629 19.0731L93.042 18.8479C91.097 18.584 90.0693 17.588 90.0693 16.0096C90.0693 14.0934 91.6029 12.8142 93.8472 12.8142C96.0916 12.8142 97.6988 14.0918 97.9613 16.0096H95.5873C95.4561 15.2776 94.8573 14.8254 93.8664 14.8254C92.9876 14.8254 92.4449 15.2019 92.4449 15.8214C92.4449 16.3845 92.8755 16.7047 93.6231 16.798L95.3248 17.0426C97.1946 17.2872 98.1679 18.2831 98.1679 19.8245C98.1679 21.8357 96.559 23.1503 94.2218 23.1503C91.8846 23.1503 90.1461 21.7971 89.8644 19.7296V19.7312Z" fill="#090915" style="fill:#090915;fill:color(display-p3 0.0353 0.0353 0.0824);fill-opacity:1;"/>
<path d="M103.281 15.3338V20.1833C103.281 20.4842 103.431 20.6338 103.729 20.6338H105.45V22.8703H103.056C101.486 22.8703 100.756 22.1366 100.756 20.5582V15.3338H98.9984V13.0974H100.793V10.6549H103.281V13.0974H105.469L105.45 15.3338H103.281Z" fill="#090915" style="fill:#090915;fill:color(display-p3 0.0353 0.0353 0.0824);fill-opacity:1;"/>
<path d="M115.996 20.1254H110.219L109.303 22.8687H106.462L111.546 8.84968H114.669L119.755 22.8703H116.913L115.998 20.127L115.996 20.1254ZM115.173 17.72L113.228 11.8939H112.985L111.04 17.72H115.173Z" fill="#090915" style="fill:#090915;fill:color(display-p3 0.0353 0.0353 0.0824);fill-opacity:1;"/>
<path d="M120.371 8.84968H123.064V22.8703H120.371V8.84968Z" fill="#090915" style="fill:#090915;fill:color(display-p3 0.0353 0.0353 0.0824);fill-opacity:1;"/>
<path d="M22.254 14.5991C22.254 18.1889 20.2535 20.5768 17.459 20.5768C16.061 20.5768 15.0503 19.9967 14.4268 19.0727H14.2115V24.4253H10.7711V8.96692H13.9962V10.4935H14.2115C14.7916 9.37508 15.8891 8.62305 17.4574 8.62305C20.2518 8.62305 22.2524 11.0093 22.2524 14.6007L22.254 14.5991ZM18.7494 14.5991C18.7494 12.944 17.8463 11.8465 16.4917 11.8465C15.1371 11.8465 14.2131 12.9424 14.2131 14.5991C14.2131 16.2558 15.1162 17.3517 16.4917 17.3517C17.8672 17.3517 18.7494 16.2558 18.7494 14.5991Z" fill="white" style="fill:white;fill-opacity:1;"/>
</svg>
