<svg width="124" height="32" viewBox="0 0 124 32" fill="none" xmlns="http://www.w3.org/2000/svg">
<rect width="32" height="32" rx="10" fill="white" style="fill:white;fill-opacity:1;"/>
<path d="M50.5078 13.7534C50.5078 16.7043 48.6189 18.6769 45.7774 18.6769H42.6926V22.8682H40V8.84766H45.7774C48.6205 8.84766 50.5078 10.8203 50.5078 13.7534ZM47.7224 13.7534C47.7224 12.344 46.8067 11.4043 45.4044 11.4043H42.6926V16.1218H45.4044C46.8067 16.1218 47.7224 15.1822 47.7224 13.7534Z" fill="white" style="fill:white;fill-opacity:1;"/>
<path d="M57.2216 13.0954V15.7824H55.7633C54.5482 15.7824 54.2105 16.3455 54.2105 17.8869V22.8667H51.686V13.0954H54.06V14.7687H54.2665C54.5274 13.7535 55.3887 13.0954 56.4724 13.0954H57.2216Z" fill="white" style="fill:white;fill-opacity:1;"/>
<path d="M57.741 17.9818C57.741 14.8813 59.7228 12.8137 62.6587 12.8137C65.5946 12.8137 67.5573 14.8813 67.5573 17.9818C67.5573 21.0822 65.5946 23.1498 62.6587 23.1498C59.7228 23.1498 57.741 21.0822 57.741 17.9818ZM64.9767 17.9818C64.9767 16.3084 64.0418 15.1998 62.6587 15.1998C61.2756 15.1998 60.3215 16.3084 60.3215 17.9818C60.3215 19.6551 61.2564 20.7637 62.6587 20.7637C64.0611 20.7637 64.9767 19.6551 64.9767 17.9818Z" fill="white" style="fill:white;fill-opacity:1;"/>
<path d="M77.5384 16.3278V22.8682H74.9947V17.38C74.9947 16.1395 74.2839 15.3318 73.181 15.3318C72.022 15.3318 71.2552 16.2715 71.2552 17.6616V22.8682H68.7307V8.84766H71.2552V14.2795H71.4425C72.022 13.3962 73.0321 12.8138 74.2279 12.8138C76.1729 12.8138 77.5384 14.2039 77.5384 16.3278Z" fill="white" style="fill:white;fill-opacity:1;"/>
<path d="M78.7872 17.9819C78.7872 14.8814 80.7691 12.8138 83.705 12.8138C86.6409 12.8138 88.6035 14.8814 88.6035 17.9819C88.6035 21.0824 86.6409 23.1499 83.705 23.1499C80.7691 23.1499 78.7872 21.0824 78.7872 17.9819ZM86.023 17.9819C86.023 16.3085 85.0881 15.2 83.705 15.2C82.3219 15.2 81.3678 16.3085 81.3678 17.9819C81.3678 19.6552 82.3027 20.7638 83.705 20.7638C85.1073 20.7638 86.023 19.6552 86.023 17.9819Z" fill="white" style="fill:white;fill-opacity:1;"/>
<path d="M89.8644 19.7292H92.3328C92.4817 20.5756 93.1749 21.0631 94.2394 21.0631C95.1935 21.0631 95.773 20.6689 95.773 19.9915C95.773 19.4654 95.4368 19.1645 94.7629 19.0712L93.042 18.8459C91.097 18.582 90.0693 17.5861 90.0693 16.0077C90.0693 14.0914 91.6029 12.8123 93.8472 12.8123C96.0916 12.8123 97.6988 14.0898 97.9613 16.0077H95.5873C95.4561 15.2756 94.8573 14.8235 93.8664 14.8235C92.9876 14.8235 92.4449 15.2 92.4449 15.8194C92.4449 16.3826 92.8755 16.7028 93.6231 16.7961L95.3248 17.0407C97.1946 17.2852 98.1679 18.2812 98.1679 19.8226C98.1679 21.8338 96.559 23.1483 94.2218 23.1483C91.8846 23.1483 90.1461 21.7952 89.8644 19.7276V19.7292Z" fill="white" style="fill:white;fill-opacity:1;"/>
<path d="M103.281 15.3319V20.1813C103.281 20.4822 103.431 20.6318 103.729 20.6318H105.45V22.8683H103.056C101.486 22.8683 100.756 22.1346 100.756 20.5562V15.3319H98.9984V13.0954H100.793V10.653H103.281V13.0954H105.469L105.45 15.3319H103.281Z" fill="white" style="fill:white;fill-opacity:1;"/>
<path d="M115.996 20.1234H110.219L109.303 22.8667H106.462L111.546 8.84773H114.669L119.755 22.8683H116.913L115.998 20.125L115.996 20.1234ZM115.173 17.718L113.228 11.8919H112.985L111.04 17.718H115.173Z" fill="white" style="fill:white;fill-opacity:1;"/>
<path d="M120.371 8.84773H123.064V22.8683H120.371V8.84773Z" fill="white" style="fill:white;fill-opacity:1;"/>
<path d="M22.2544 14.6011C22.2544 18.1909 20.2538 20.5788 17.4594 20.5788C16.0614 20.5788 15.0507 19.9987 14.4272 19.0747H14.2119V24.4273H10.7715V8.96888H13.9965V10.4954H14.2119C14.792 9.37703 15.8895 8.625 17.4578 8.625C20.2522 8.625 22.2528 11.0113 22.2528 14.6027L22.2544 14.6011ZM18.7498 14.6011C18.7498 12.946 17.8467 11.8484 16.4921 11.8484C15.1374 11.8484 14.2135 12.9444 14.2135 14.6011C14.2135 16.2578 15.1165 17.3537 16.4921 17.3537C17.8676 17.3537 18.7498 16.2578 18.7498 14.6011Z" fill="black" style="fill:black;fill-opacity:1;"/>
</svg>
